<mxfile host="app.diagrams.net" modified="2024-01-24T12:14:24.673Z" agent="Mozilla/5.0 (Macintosh; Intel Mac OS X 10_15_7) AppleWebKit/537.36 (KHTML, like Gecko) Chrome/120.0.0.0 Whale/3.24.223.18 Safari/537.36" etag="GiHTDXaRio-6u5muTKfA" version="22.1.21" type="github">
  <diagram name="페이지-1" id="mkhhxJsGzN1-1RJD6tzv">
    <mxGraphModel dx="1548" dy="997" grid="1" gridSize="10" guides="1" tooltips="1" connect="1" arrows="1" fold="1" page="1" pageScale="1" pageWidth="1169" pageHeight="827" math="0" shadow="0">
      <root>
        <mxCell id="0" />
        <mxCell id="1" parent="0" />
        <mxCell id="FtFmNRFeE1UrtrCfEEYP-1" value="" style="rounded=1;whiteSpace=wrap;html=1;fillColor=#dae8fc;strokeColor=#6c8ebf;" vertex="1" parent="1">
          <mxGeometry x="220" y="200" width="280" height="180" as="geometry" />
        </mxCell>
        <mxCell id="FtFmNRFeE1UrtrCfEEYP-2" value="&lt;b&gt;&lt;font style=&quot;font-size: 17px;&quot;&gt;Kafka Broker&lt;/font&gt;&lt;/b&gt;" style="text;html=1;strokeColor=none;fillColor=none;align=center;verticalAlign=middle;whiteSpace=wrap;rounded=0;" vertex="1" parent="1">
          <mxGeometry x="305" y="200" width="110" height="30" as="geometry" />
        </mxCell>
        <mxCell id="FtFmNRFeE1UrtrCfEEYP-3" value="&lt;font style=&quot;font-size: 13px;&quot;&gt;message 1&lt;/font&gt;" style="rounded=0;whiteSpace=wrap;html=1;" vertex="1" parent="1">
          <mxGeometry x="240" y="280" width="80" height="80" as="geometry" />
        </mxCell>
        <mxCell id="FtFmNRFeE1UrtrCfEEYP-5" value="&lt;font style=&quot;font-size: 13px;&quot;&gt;0&lt;/font&gt;" style="ellipse;whiteSpace=wrap;html=1;aspect=fixed;fillColor=#f5f5f5;fontColor=#333333;strokeColor=#666666;" vertex="1" parent="1">
          <mxGeometry x="290" y="280" width="30" height="30" as="geometry" />
        </mxCell>
        <mxCell id="FtFmNRFeE1UrtrCfEEYP-6" value="&lt;font style=&quot;font-size: 13px;&quot;&gt;message 2&lt;/font&gt;" style="rounded=0;whiteSpace=wrap;html=1;" vertex="1" parent="1">
          <mxGeometry x="320" y="280" width="80" height="80" as="geometry" />
        </mxCell>
        <mxCell id="FtFmNRFeE1UrtrCfEEYP-7" value="&lt;font style=&quot;font-size: 13px;&quot;&gt;1&lt;/font&gt;" style="ellipse;whiteSpace=wrap;html=1;aspect=fixed;fillColor=#f5f5f5;fontColor=#333333;strokeColor=#666666;" vertex="1" parent="1">
          <mxGeometry x="370" y="280" width="30" height="30" as="geometry" />
        </mxCell>
        <mxCell id="FtFmNRFeE1UrtrCfEEYP-8" value="" style="rounded=0;whiteSpace=wrap;html=1;" vertex="1" parent="1">
          <mxGeometry x="400" y="280" width="80" height="80" as="geometry" />
        </mxCell>
        <mxCell id="FtFmNRFeE1UrtrCfEEYP-9" value="&lt;font style=&quot;font-size: 13px;&quot;&gt;2&lt;/font&gt;" style="ellipse;whiteSpace=wrap;html=1;aspect=fixed;fillColor=#f5f5f5;fontColor=#333333;strokeColor=#666666;" vertex="1" parent="1">
          <mxGeometry x="450" y="280" width="30" height="30" as="geometry" />
        </mxCell>
        <mxCell id="FtFmNRFeE1UrtrCfEEYP-13" value="&lt;font style=&quot;font-size: 14px;&quot;&gt;Topic partition&lt;/font&gt;" style="text;html=1;strokeColor=none;fillColor=none;align=center;verticalAlign=middle;whiteSpace=wrap;rounded=0;" vertex="1" parent="1">
          <mxGeometry x="240" y="250" width="90" height="30" as="geometry" />
        </mxCell>
        <mxCell id="FtFmNRFeE1UrtrCfEEYP-14" value="" style="rounded=1;whiteSpace=wrap;html=1;fillColor=#d5e8d4;strokeColor=#82b366;" vertex="1" parent="1">
          <mxGeometry x="230" y="450" width="260" height="86" as="geometry" />
        </mxCell>
        <mxCell id="FtFmNRFeE1UrtrCfEEYP-17" style="edgeStyle=orthogonalEdgeStyle;rounded=0;orthogonalLoop=1;jettySize=auto;html=1;exitX=0.5;exitY=0;exitDx=0;exitDy=0;entryX=0.5;entryY=1;entryDx=0;entryDy=0;curved=1;" edge="1" parent="1" source="FtFmNRFeE1UrtrCfEEYP-15" target="FtFmNRFeE1UrtrCfEEYP-3">
          <mxGeometry relative="1" as="geometry" />
        </mxCell>
        <mxCell id="FtFmNRFeE1UrtrCfEEYP-15" value="&lt;b&gt;&lt;font style=&quot;font-size: 17px;&quot;&gt;Kafka Consumer&lt;/font&gt;&lt;/b&gt;" style="text;html=1;strokeColor=none;fillColor=none;align=center;verticalAlign=middle;whiteSpace=wrap;rounded=0;" vertex="1" parent="1">
          <mxGeometry x="285" y="450" width="150" height="30" as="geometry" />
        </mxCell>
        <mxCell id="FtFmNRFeE1UrtrCfEEYP-16" value="&lt;b&gt;&lt;font style=&quot;font-size: 15px;&quot;&gt;auto.offset.reset: earlist&lt;/font&gt;&lt;/b&gt;" style="text;html=1;strokeColor=none;fillColor=none;align=center;verticalAlign=middle;whiteSpace=wrap;rounded=0;" vertex="1" parent="1">
          <mxGeometry x="260" y="493" width="200" height="30" as="geometry" />
        </mxCell>
      </root>
    </mxGraphModel>
  </diagram>
</mxfile>
